<svg id="Capa_1" enable-background="new 0 0 512 512" height="512" viewBox="0 0 512 512" width="512" xmlns="http://www.w3.org/2000/svg"><g><g><g><g><path d="m226 210h-180v-30c0-49.706 40.294-90 90-90 49.706 0 90 40.294 90 90z" fill="#d2eb5a"/><path d="m136 90v120h90v-30c0-49.706-40.294-90-90-90z" fill="#00da80"/><path d="m136 120c-33.084 0-60-26.916-60-60s26.916-60 60-60 60 26.916 60 60-26.916 60-60 60z" fill="#ffe4c2"/><path d="m136 0v120c33.084 0 60-26.916 60-60s-26.916-60-60-60z" fill="#f2d1a5"/></g></g><g><g><path d="m466 210h-180v-30c0-49.706 40.294-90 90-90 49.706 0 90 40.294 90 90z" fill="#6aa9ff"/><path d="m376 90v120h90v-30c0-49.706-40.294-90-90-90z" fill="#6c67d3"/><path d="m376 120c-33.084 0-60-26.916-60-60s26.916-60 60-60 60 26.916 60 60-26.916 60-60 60z" fill="#ffe4c2"/><path d="m376 0v120c33.084 0 60-26.916 60-60s-26.916-60-60-60z" fill="#f2d1a5"/></g></g><path d="m0 210v55c0 8.284 6.716 15 15 15h482c8.284 0 15-6.716 15-15v-55c0-8.284-6.716-15-15-15h-482c-8.284 0-15 6.716-15 15z" fill="#ffeb99"/></g><path d="m377 370c-8.284 0-15-6.716-15-15v-30c0-8.284 6.716-15 15-15 8.284 0 15 6.716 15 15v30c0 8.284-6.716 15-15 15z" fill="#5f55af"/><path d="m420.393 370.607c-5.858-5.858-5.858-15.355 0-21.213l20-20c5.858-5.858 15.355-5.858 21.213 0 5.858 5.858 5.858 15.355 0 21.213l-20 20c-5.857 5.858-15.355 5.858-21.213 0z" fill="#453d83"/><path d="m310.393 370.607-20-20c-5.858-5.858-5.858-15.355 0-21.213 5.858-5.858 15.355-5.858 21.213 0l20 20c5.858 5.858 5.858 15.355 0 21.213-5.857 5.858-15.355 5.858-21.213 0z" fill="#5f55af"/><g><path d="m226 442h-180v-30c0-49.706 40.294-90 90-90 49.706 0 90 40.294 90 90z" fill="#ff5e90"/><path d="m136 322v120h90v-30c0-49.706-40.294-90-90-90z" fill="#ff405c"/><path d="m136 352c-33.084 0-60-26.916-60-60s26.916-60 60-60 60 26.916 60 60-26.916 60-60 60z" fill="#ffe4c2"/><path d="m136 232v120c33.084 0 60-26.916 60-60s-26.916-60-60-60z" fill="#f2d1a5"/></g><path d="m0 442v55c0 8.284 6.716 15 15 15h482c8.284 0 15-6.716 15-15v-55c0-8.284-6.716-15-15-15h-482c-8.284 0-15 6.716-15 15z" fill="#ffeb99"/><g fill="#ffcd00"><path d="m256 195v85h241c8.284 0 15-6.716 15-15v-55c0-8.284-6.716-15-15-15z"/><path d="m256 427v85h241c8.284 0 15-6.716 15-15v-55c0-8.284-6.716-15-15-15z"/></g><path d="m377 310v60c8.284 0 15-6.716 15-15v-30c0-8.284-6.716-15-15-15z" fill="#453d83"/></g></svg>